<svg xmlns="http://www.w3.org/2000/svg" width="150.66701" height="174.66701" viewBox="0 0 39.863978 46.21398"><path d="M37.747 39.821H1.197V1.323h36.55zm0 0" style="fill:#a11438;fill-opacity:1;fill-rule:nonzero;stroke:none;stroke-width:.352778"/><path d="M17.828 4.902c-3.866 4.939-8.936 5.27-9.641 5.283v4.5s.442.008 3.6.017c2.072.006 2.044 2.065 2.044 2.065v20.59h24.342V4.902Zm0 0" style="fill:#9ca1ab;fill-opacity:1;fill-rule:nonzero;stroke:none;stroke-width:.352778"/><path d="M30.123 14.713c0-1.084.103-1.824.311-2.22.208-.397.61-.595 1.206-.595.609 0 1.02.185 1.237.553.215.369.324 1.123.324 2.262v2.314c0 1.196-.105 1.984-.313 2.368-.208.381-.61.573-1.204.573-.565 0-.968-.195-1.206-.585-.237-.388-.355-1.09-.355-2.105zm7.351-7.1c-1.507-.578-3.475-.868-5.902-.868-3.421 0-5.991.724-7.71 2.17-1.718 1.448-2.578 3.62-2.578 6.514 0 1.675.278 3.056.834 4.143.553 1.088 1.809 2.499 3.231 3.138 0 0 .682.391 1.804.646.572.197 2.36.65 6.198.46.006 3.202.015 10.6-.003 10.839-.023.303-.172.587-.45.85-.278.262-.644.394-1.093.394-.977 0-1.549-.457-1.716-1.37-.164-.916-.248-2.46-.248-4.635v-2.098H21.32v1.825c0 3.125.37 5.436 1.11 6.929.142.285.25.438.427.696l12.236-.046 1.046-.383.956-.922.417-.843zm0 0" style="fill:#fff;fill-opacity:1;fill-rule:nonzero;stroke:none;stroke-width:.352778"/><path d="M37.39 34.739a2.125 2.125 0 0 1-2.118 2.132H4.59a2.125 2.125 0 0 1-2.116-2.132V4.521c0-1.178.948-2.133 2.116-2.133h30.682c1.17 0 2.118.955 2.118 2.133zM37.042 0H2.822C1.458 0 0 1.47 0 2.844v40.527c0 1.374 1.458 2.843 2.822 2.843h34.22c1.364 0 2.822-1.47 2.822-2.843V2.844C39.864 1.47 38.406 0 37.042 0" style="fill:#211e1e;fill-opacity:1;fill-rule:nonzero;stroke:none;stroke-width:.352778"/><path d="M7.017 41.811h-.744v-1.013h-.849v-.563h.849v-1.369h.744Zm-2.777.897c-.194.097-.29.217-.29.358 0 .14.096.258.29.355.217.111.514.166.893.166.385 0 .688-.055.908-.166.199-.097.298-.215.298-.355 0-.141-.1-.261-.298-.358-.22-.107-.523-.161-.908-.161-.379 0-.676.054-.893.161m2.364-.397c.322.207.482.462.482.761-.003.298-.165.548-.487.751-.358.229-.846.345-1.466.345-.616 0-1.102-.116-1.46-.345-.319-.203-.477-.453-.477-.751 0-.3.158-.554.476-.76.362-.23.85-.344 1.461-.344.623 0 1.112.115 1.47.343M3.95 39.253v-.413h.743v.413h1.005v.563H4.692c0 .332.112.64.335.917.208.26.495.476.86.644l-.332.434a2.945 2.945 0 0 1-.753-.444c-.234-.194-.4-.384-.497-.574-.103.19-.274.38-.513.574-.24.196-.496.346-.767.45l-.276-.429c.345-.172.624-.389.838-.65.241-.288.362-.596.362-.922H2.945v-.563zM9.68 43.088v-1.431h.74v1.431h1.811v.564H7.884v-.564zm1.286-2.5c.298.344.735.615 1.31.815l-.33.458a4.936 4.936 0 0 1-1.156-.57 2.68 2.68 0 0 1-.747-.782c-.17.3-.413.56-.727.783-.302.21-.69.4-1.166.569l-.297-.458c.55-.2.973-.474 1.272-.82.371-.432.556-.99.556-1.674h.738c0 .694.184 1.254.547 1.68M14.053 43.394h3.018v.58H13.97c-.238 0-.408-.045-.512-.134-.098-.09-.147-.235-.147-.435v-1.094h.743zm2.24-2.592h-1.365v-.584h1.366v-.402h-1.34v-.58h1.34v-.37h.743v3.735h-.743v-.783h-2.702c-.18 0-.315-.057-.401-.167-.082-.099-.12-.244-.12-.43V38.91h.741v2.334h2.482zM22.046 44.028h-.743v-5.162h.743zm-3.178-4.094c-.098.325-.146.746-.146 1.261 0 .558.048 1.006.146 1.346.108.364.26.547.462.547.197 0 .35-.183.456-.547.102-.34.151-.788.151-1.346 0-.515-.05-.936-.151-1.26-.11-.355-.262-.531-.456-.531-.199 0-.352.176-.462.53m1.481-.386c.228.433.34.984.34 1.651 0 .709-.112 1.286-.34 1.728-.24.484-.58.725-1.014.725-.44 0-.781-.241-1.025-.725-.223-.442-.335-1.02-.335-1.728 0-.667.112-1.218.335-1.65.248-.473.59-.709 1.025-.709.432 0 .77.236 1.014.708M25.69 41.26v-.332a3.638 3.638 0 0 1-.602.047c-.12 0-.227-.003-.32-.011-.108-.01-.204-.024-.293-.036v.332zm-1.46 1.608c-.189.079-.281.175-.281.29 0 .114.092.212.281.29.21.088.496.134.859.134.35 0 .63-.046.837-.134.19-.078.286-.176.286-.29 0-.115-.095-.211-.286-.29-.208-.085-.487-.128-.837-.128-.363 0-.648.043-.859.128m-.026-3.293c-.193.086-.29.197-.29.333 0 .13.097.241.29.327.212.093.503.139.874.139.372 0 .665-.046.879-.14.194-.085.29-.195.29-.326 0-.136-.096-.247-.29-.333-.214-.09-.507-.134-.88-.134-.37 0-.66.044-.873.134m2.285 2.885c.314.19.472.425.472.703 0 .273-.158.503-.472.693-.349.21-.818.316-1.406.316-.593 0-1.062-.105-1.411-.316-.31-.19-.467-.42-.467-.693 0-.278.157-.513.467-.703.349-.21.818-.315 1.411-.315.588 0 1.057.104 1.406.315m-3.199-2.118a.74.74 0 0 1-.144-.434c0-.298.16-.546.48-.746.356-.215.842-.322 1.463-.322.616 0 1.102.107 1.46.322.324.2.487.448.487.746 0 .153-.05.298-.15.434-.108.14-.258.262-.452.365v.553h.828v.584h-4.348v-.584h.819v-.553a1.268 1.268 0 0 1-.443-.365M28.913 40.079h2.371v-.349h-2.371zm0-1.17v.248h2.37v-.248h.743v1.75h-3.178c-.239 0-.412-.05-.522-.146-.104-.095-.156-.244-.156-.445v-1.16zm3.36 2.512h-1.8v.365h1.553v1.367h-3.113v.236h3.153v.586h-3.218c-.222 0-.39-.053-.507-.158-.115-.099-.171-.242-.171-.428v-.816h3.113v-.208H28.17v-.579h1.561v-.365h-1.806v-.576h4.347zM37.006 38.868v2.091h.507v.59h-.507v2.48h-.744v-5.161zm-1.666.107v1.599c0 .764-.189 1.407-.564 1.925-.348.475-.865.86-1.551 1.153l-.295-.44c.501-.23.891-.52 1.17-.875.334-.425.501-.938.501-1.539V39.56H33.05v-.584zm0 0" style="fill:#fff;fill-opacity:1;fill-rule:nonzero;stroke:none;stroke-width:.352778"/></svg>