<svg xmlns="http://www.w3.org/2000/svg" xmlns:xlink="http://www.w3.org/1999/xlink" xml:space="preserve" width="426.082px" height="519.378px" x="0px" y="0px" viewBox="0 0 426.082 519.378"><defs><path id="a" d="M0-3.624h426.082v536.125H0z"/></defs><clipPath id="b"><use xlink:href="#a" overflow="visible"/></clipPath><path fill="#F5A200" d="M0 0h425.727v425.717H0z" clip-path="url(#b)"/><path fill="#FFF" d="M149.868 365.254H83.447V134.505H40.029V95.339c29.8.422 49.386-11.931 60.027-40.877h49.812v310.792zM280.125 189c12.77-11.926 22.145-20.439 43.427-20.439 39.593 0 60.453 33.635 60.453 96.226 0 58.756-15.328 105.586-85.569 105.586-49.391 0-74.507-25.126-83.446-72.81-3.83-20.86-4.262-46.414-4.262-81.314.432-42.583.853-68.127 4.692-88.987 8.939-47.679 34.047-72.801 83.438-72.801 44.692 0 80.892 27.677 80.892 74.512v15.756h-62.16v-7.248c0-21.282-8.091-26.818-18.731-26.818-12.77 1.706-18.311 13.627-18.732 30.648V189zm19.155 40.868c-13.191 0-19.154 13.206-19.154 41.299 0 28.524 5.963 41.294 19.154 41.294 14.054 0 20.017-12.77 20.017-41.294-.001-28.094-5.964-41.299-20.017-41.299" clip-path="url(#b)"/><path d="M0 519.378h425.727V0H0m417.195 417.194H8.513V8.508h408.682v408.686z" clip-path="url(#b)"/><path d="M381.245 17.031v3.159h-6.729v21.33h-3.95V20.19h-6.739v-3.159h17.418zm27.446 24.489h-3.959V22.231h-.115L397.83 41.52h-3.221l-6.462-19.288h-.115V41.52h-3.949V17.031h6.279l6.106 18.219h.115l5.943-18.219h6.164V41.52z" clip-path="url(#b)"/><path fill="#FFF" d="M27.034 487.455h7.224l6.638-32.288h.149l6.931 32.288h6.783l9.351-39.526h-6.475l-6.116 32.316h-.159l-6.557-32.316h-7.295l-6.711 32.316h-.149l-6.341-32.316h-6.49zM74.833 487.455h7.224l6.638-32.288h.159l6.931 32.288h6.763l9.371-39.526h-6.485l-6.117 32.316h-.158l-6.567-32.316h-7.295l-6.706 32.316h-.144l-6.341-32.316h-6.49zM122.627 487.455h7.224l6.638-32.288h.144l6.941 32.288h6.773l9.366-39.526h-6.481l-6.126 32.316h-.143l-6.567-32.316h-7.295l-6.716 32.316h-.149l-6.341-32.316H113.4zM163.212 479.651h6.773v7.804h-6.773z" clip-path="url(#b)"/><path fill="#FFF" fill-rule="evenodd" d="M185.324 467.706c0-9.012 1.107-15.492 7.966-15.492 5.757 0 7.228 6.06 7.228 14.744 0 10.182-1.471 16.221-7.228 16.221-6.634 0-7.966-7.813-7.966-15.473m-5.824 32.729h6.184v-17.467h.158a8.973 8.973 0 0 0 8.254 5.522c10.248 0 12.913-12.539 12.913-21.532 0-11.715-3.547-20.055-12.913-20.055-4.275 0-7.731 2.962-8.546 5.905h-.15v-4.88h-5.9v52.507zM219.035 463.564v-1.476c0-2.34.733-10.315 7.224-10.315 5.455 0 6.854 5.225 6.854 9.653v2.138h-14.078zm20.558 4.871v-2.502c0-8.484-1.103-19.029-13.191-19.029-12.16 0-14.083 11.428-14.083 21.32 0 13.565 4.055 20.267 13.723 20.267 10.752 0 13.264-9.808 13.264-14.006h-6.193c0 2.942-.824 9.146-6.711 9.146-7.583 0-7.583-9.146-7.583-15.195h20.774zM258.632 452.214c6.634 0 7.957 7.813 7.957 15.492 0 8.092-1.323 14.447-8.043 14.447-6.174 0-7.143-8.043-7.143-14.447.001-9.433 1.477-15.492 7.229-15.492m13.776-4.285h-5.896v5.033h-.153c-.805-3.105-4.266-6.059-8.551-6.059-10.019 0-12.885 10.104-12.885 20.803 0 5.234.729 19.749 12.232 19.749 3.911 0 7.593-1.994 8.916-5.302h.163v5.167c0 2.723.277 8.839-7.688 8.839-3.231 0-6.05-1.399-6.337-5.004h-6.193c1.026 9.874 10.546 9.874 12.961 9.874 7.977 0 13.431-4.275 13.431-16.077v-37.023zM280.912 487.455h6.192v-39.517h-6.192v39.517zm0-45.556h6.192v-7.095h-6.192v7.095z" clip-path="url(#b)" clip-rule="evenodd"/><path fill="#FFF" d="M296.979 479.651h6.777v7.804h-6.777z" clip-path="url(#b)"/><path fill="#FFF" fill-rule="evenodd" d="M313.64 487.455h6.212v-39.517h-6.212v39.517zm0-45.556h6.212v-7.095h-6.212v7.095z" clip-path="url(#b)" clip-rule="evenodd"/><path fill="#FFF" d="M328.317 487.455h6.174v-27.274c0-5.752 4.516-7.967 7.833-7.967 5.598 0 5.828 4.947 5.828 7.967v27.274h6.193v-28.022c0-4.63 0-12.529-10.411-12.529-3.815 0-7.957 2.07-9.567 5.694h-.153v-4.669h-5.896v39.526zM364.305 487.455h6.212v-34.646h6.759v-4.88h-6.759v-4.63c0-2.732 1.313-3.758 3.979-3.758h2.867v-5.312h-4.497c-5.981 0-8.561 3.097-8.561 9.069v4.63h-5.742v4.88h5.742v34.647z" clip-path="url(#b)"/><path fill="#FFF" fill-rule="evenodd" d="M379.634 467.706c0 11.121 2.818 20.784 14.236 20.784 11.36 0 14.217-9.663 14.217-20.784 0-11.149-2.79-20.803-14.217-20.803-11.34 0-14.236 9.654-14.236 20.803m14.093 15.934c-6.347 0-7.583-7.401-7.583-15.934 0-8.57 1.322-15.933 7.583-15.933 6.634 0 7.899 7.362 7.899 15.933 0 8.532-1.342 15.934-7.899 15.934" clip-path="url(#b)" clip-rule="evenodd"/></svg>